<?xml version="1.0" standalone="no"?><!DOCTYPE svg PUBLIC "-//W3C//DTD SVG 1.1//EN" "http://www.w3.org/Graphics/SVG/1.1/DTD/svg11.dtd"><svg t="1730272613512" class="icon" viewBox="0 0 1024 1024" version="1.1" xmlns="http://www.w3.org/2000/svg" p-id="6347" data-darkreader-inline-fill="" xmlns:xlink="http://www.w3.org/1999/xlink" width="200" height="200"><path d="M888.32 492.032c-1.536-0.512-3.072-0.512-4.096-1.024-26.112-4.608-49.152-5.632-70.144-3.584-91.136 8.192-139.264 69.12-197.632 123.392l-2.048 2.048c-33.792 26.112-71.68 47.616-118.784 54.784 12.8-15.36 25.088-31.744 34.304-49.664 15.872-29.696-6.656-49.664-44.544-39.936-40.96 10.24-103.936 44.032-114.688-12.8-2.048-10.24-1.024-21.504 2.048-32.768 10.24-38.4 45.568-81.408 80.384-113.152 27.136-24.576 57.344-43.008 64.512-46.08 77.312-33.28 252.928-21.504 272.384-130.56l-133.632-35.84s-40.448-69.12-214.016-55.808c-13.312-5.632-36.864-19.456-51.2-49.152 0 0-14.848 21.504-11.264 44.544-28.16-4.096-57.856-12.288-68.608-26.624 0 0-16.384 88.064 51.2 116.224h-0.512c-81.408 34.304-147.456 98.304-184.832 178.176-21.504 45.568-33.28 96.768-33.28 150.528 0 175.616 126.464 321.536 293.888 351.744 20.48 3.584 41.984 5.632 63.488 5.632 117.248 0 221.696-56.32 286.72-143.872l7.68-10.752c5.12-7.168 9.728-14.848 14.336-22.016 22.528-38.4 38.4-81.408 45.056-127.488-4.096 4.096-19.456 13.312-24.576 18.432 25.088-108.544 34.304-114.176 57.856-144.384z" p-id="6348" fill="#8a8a8a" data-darkreader-inline-fill="" style="--darkreader-inline-fill: #5a6265;"></path><path d="M500.736 484.864c-22.016-5.12-40.96 14.336-36.352 36.352 2.56 11.264 11.264 19.968 22.528 22.528 22.016 5.12 40.96-14.336 36.352-36.352-2.56-11.264-11.264-19.968-22.528-22.528z" p-id="6349" fill="#8a8a8a" data-darkreader-inline-fill="" style="--darkreader-inline-fill: #9e9689;"></path><path d="M596.725302 485.146525a59.392 58.88 44.983 1 0 83.244184-83.293597 59.392 58.88 44.983 1 0-83.244184 83.293597Z" p-id="6350" fill="#8a8a8a" data-darkreader-inline-fill="" style="--darkreader-inline-fill: #9e9689;"></path></svg>